<svg width="18" height="15" viewBox="0 0 18 15" fill="none" xmlns="http://www.w3.org/2000/svg">
<path d="M17 7.67224C17 10.4965 17 11.9086 16.0627 12.7859C15.1255 13.6633 13.617 13.6633 10.6 13.6633H7.4C4.38301 13.6633 2.87452 13.6633 1.93726 12.7859C1 11.9086 1 10.4965 1 7.67224C1 4.84801 1 3.4359 1.93726 2.55853C2.87452 1.68115 4.38301 1.68115 7.4 1.68115H10.6C13.617 1.68115 15.1255 1.68115 16.0627 2.55853C16.5853 3.04768 16.8165 3.70306 16.9188 4.67669" stroke="#82868C" stroke-width="1.5" stroke-linecap="round"/>
<path d="M13.7992 4.67627L12.0721 6.02357C10.6028 7.16976 9.86814 7.74286 8.99922 7.74286C8.47978 7.74286 8.00832 7.53806 7.39922 7.12845M4.19922 4.67627L4.91922 5.23793L5.63922 5.7996" stroke="#82868C" stroke-width="1.5" stroke-linecap="round"/>
</svg>
