<svg width="16" height="18" viewBox="0 0 16 18" fill="none" xmlns="http://www.w3.org/2000/svg">
<path d="M12 0.681152H4C1.79086 0.681152 0 2.53084 0 4.81254V13.0753C0 15.357 1.79086 17.2067 4 17.2067H12C14.2091 17.2067 16 15.357 16 13.0753V4.81254C16 2.53084 14.2091 0.681152 12 0.681152Z" fill="#82868C"/>
<path d="M11.1994 8.42383C11.2981 9.11149 11.1844 9.8138 10.8744 10.4309C10.5644 11.0479 10.0739 11.5483 9.47268 11.8609C8.87146 12.1734 8.19013 12.2822 7.5256 12.1718C6.86108 12.0613 6.24718 11.7373 5.77125 11.2457C5.29531 10.7541 4.98156 10.1201 4.87463 9.43371C4.7677 8.74736 4.87303 8.04365 5.17564 7.42269C5.47825 6.80172 5.96272 6.29512 6.56016 5.97494C7.1576 5.65476 7.83758 5.5373 8.50338 5.63927C9.18251 5.74328 9.81126 6.07014 10.2967 6.57156C10.7822 7.07298 11.0987 7.72238 11.1994 8.42383Z" stroke="white" stroke-width="2" stroke-linecap="round" stroke-linejoin="round"/>
<path d="M12.4004 4.39941H12.4084" stroke="white" stroke-width="2" stroke-linecap="round" stroke-linejoin="round"/>
</svg>
