<svg width="31" height="31" viewBox="0 0 31 31" fill="none" xmlns="http://www.w3.org/2000/svg">
<rect width="31" height="31" rx="15.5" fill="#6B14FA"/>
<path d="M9.44186 9.20224L11.7842 16.0582L9.38307 22.8996C9.33766 23.0285 9.38019 23.1665 9.49034 23.2604C9.50217 23.2705 9.51457 23.2801 9.52814 23.2892C9.66579 23.3819 9.85646 23.3945 10.0093 23.3208L24.3888 16.4135C24.5234 16.3488 24.6064 16.2283 24.607 16.0976C24.6075 15.9668 24.5256 15.8458 24.3916 15.7803L10.0717 8.78499C9.9192 8.71057 9.72871 8.72174 9.59027 8.81363C9.45182 8.90551 9.39299 9.05934 9.44186 9.20224ZM10.5146 22.2386L12.5551 16.4252L22.5529 16.4561L10.5146 22.2386ZM22.5563 15.7262L12.5582 15.6955L10.5677 9.87023L22.5563 15.7262Z" fill="white"/>
</svg>
