<svg width="20" height="17" viewBox="0 0 20 17" fill="none" xmlns="http://www.w3.org/2000/svg">
<path d="M19.5813 3.16131C19.4733 2.67492 19.2534 2.22928 18.9438 1.86938C18.6341 1.50949 18.2457 1.24809 17.8178 1.11159C16.2542 0.681152 10 0.681152 10 0.681152C10 0.681152 3.74578 0.681152 2.18222 1.15259C1.75429 1.28908 1.36588 1.55048 1.05623 1.91038C0.746586 2.27027 0.526664 2.71592 0.41868 3.20231C0.132526 4.99126 -0.00744728 6.80603 0.00051965 8.62382C-0.00968046 10.4553 0.130302 12.2839 0.41868 14.0863C0.537727 14.5576 0.762577 14.9863 1.0715 15.331C1.38043 15.6757 1.76299 15.9247 2.18222 16.054C3.74578 16.5255 10 16.5255 10 16.5255C10 16.5255 16.2542 16.5255 17.8178 16.054C18.2457 15.9176 18.6341 15.6562 18.9438 15.2963C19.2534 14.9364 19.4733 14.4907 19.5813 14.0043C19.8653 12.2289 20.0052 10.4279 19.9995 8.62382C20.0097 6.79235 19.8697 4.96373 19.5813 3.16131V3.16131Z" fill="#82868C"/>
<path d="M7.95312 11.975L13.1801 8.62375L7.95312 5.27246V11.975Z" fill="white"/>
</svg>
