<svg width="107" height="55" viewBox="0 0 107 55" fill="none" xmlns="http://www.w3.org/2000/svg">
<path d="M3.66007 19.1962C5.68147 19.1962 7.32013 17.5576 7.32013 15.5362C7.32013 13.5148 5.68147 11.8761 3.66007 11.8761C1.63867 11.8761 0 13.5148 0 15.5362C0 17.5576 1.63867 19.1962 3.66007 19.1962Z" fill="#715DE3"/>
<path d="M3.66007 33.3464C5.68147 33.3464 7.32013 31.7077 7.32013 29.6863C7.32013 27.6649 5.68147 26.0262 3.66007 26.0262C1.63867 26.0262 0 27.6649 0 29.6863C0 31.7077 1.63867 33.3464 3.66007 33.3464Z" fill="#715DE3"/>
<path d="M3.66007 47.5045C5.68147 47.5045 7.32013 45.8658 7.32013 43.8444C7.32013 41.823 5.68147 40.1843 3.66007 40.1843C1.63867 40.1843 0 41.823 0 43.8444C0 45.8658 1.63867 47.5045 3.66007 47.5045Z" fill="#715DE3"/>
<path d="M20.0801 30.2387V49.7212H16.6668V30.2387H20.0801ZM28.7259 35.4901C30.7214 35.4901 32.2442 35.9977 33.2945 37.013C34.3623 38.0107 34.8962 39.5161 34.8962 41.5291V49.7212H31.7191V47.8045C31.3515 48.4871 30.8089 49.0123 30.0912 49.3799C29.3735 49.7299 28.5158 49.905 27.518 49.905C25.9952 49.905 24.7874 49.5199 23.8946 48.7497C23.0019 47.962 22.5555 46.9467 22.5555 45.7039C22.5555 44.4261 23.0106 43.4196 23.9209 42.6844C24.8311 41.9317 26.2402 41.5554 28.1482 41.5554H31.5091C31.5091 40.9602 31.4215 40.4788 31.2465 40.1112C30.8614 38.9209 29.8724 38.3258 28.2795 38.3258C27.5268 38.3258 26.7916 38.4571 26.0739 38.7196C25.3738 38.9647 24.7698 39.2973 24.2622 39.7174L23.0282 37.2493C23.7458 36.6891 24.6036 36.2603 25.6013 35.9627C26.6166 35.6476 27.6581 35.4901 28.7259 35.4901ZM28.332 47.4894C29.0847 47.4894 29.7411 47.3056 30.3013 46.938C30.8614 46.5704 31.264 46.0365 31.5091 45.3363V43.6559H28.5158C26.7478 43.6559 25.8639 44.2861 25.8639 45.5464C25.8639 46.1415 26.0827 46.6142 26.5203 46.9642C26.9579 47.3143 27.5618 47.4894 28.332 47.4894ZM44.2606 50.7715C43.6654 52.3294 42.939 53.4234 42.0813 54.0535C41.2236 54.6837 40.1908 54.9988 38.983 54.9988C38.3003 54.9988 37.6264 54.885 36.9612 54.6574C36.3136 54.4474 35.7884 54.1411 35.3858 53.7385L36.6461 51.1916C36.9437 51.4891 37.2851 51.7167 37.6701 51.8742C38.0728 52.0318 38.4754 52.1105 38.878 52.1105C39.4556 52.1105 39.9195 51.9443 40.2696 51.6117C40.6372 51.2966 41.0135 50.6927 41.3986 49.8L35.5434 35.6739H39.0355L43.1053 45.7564L47.1488 35.6739H50.4309L44.2606 50.7715ZM64.4586 42.7107C64.4586 42.7807 64.4324 43.1045 64.3799 43.6822H54.0347C54.1923 44.7149 54.6474 45.5376 55.4001 46.1503C56.1528 46.7454 57.0893 47.043 58.2095 47.043C59.6274 47.043 60.8002 46.5529 61.7279 45.5726L63.5396 47.6207C62.2618 49.1435 60.4501 49.905 58.1045 49.905C56.6341 49.905 55.3301 49.5987 54.1923 48.986C53.0545 48.3558 52.1705 47.4981 51.5403 46.4128C50.9277 45.3101 50.6214 44.0673 50.6214 42.6844C50.6214 41.3191 50.9189 40.0937 51.5141 39.0085C52.1267 37.9057 52.967 37.048 54.0347 36.4353C55.1025 35.8052 56.2928 35.4901 57.6056 35.4901C58.901 35.4901 60.065 35.7876 61.0978 36.3828C62.148 36.9779 62.9707 37.8182 63.5659 38.9034C64.161 39.9887 64.4586 41.2578 64.4586 42.7107ZM57.6319 38.1945C56.6516 38.1945 55.8289 38.5096 55.1638 39.1398C54.5161 39.7524 54.131 40.5664 54.0085 41.5816H61.2553C61.1153 40.5664 60.7214 39.7524 60.0738 39.1398C59.4261 38.5096 58.6121 38.1945 57.6319 38.1945ZM70 37.7744C70.4376 37.0217 71.0503 36.4528 71.838 36.0677C72.6432 35.6826 73.5884 35.4901 74.6737 35.4901V38.7722C74.4812 38.7547 74.2273 38.7459 73.9123 38.7459C72.7395 38.7459 71.8205 39.1047 71.1553 39.8224C70.4901 40.5226 70.1576 41.5641 70.1576 42.947V49.7212H66.7442V35.6739H70V37.7744ZM89.5435 42.7107C89.5435 42.7807 89.5172 43.1045 89.4647 43.6822H79.1196C79.2771 44.7149 79.7323 45.5376 80.4849 46.1503C81.2376 46.7454 82.1741 47.043 83.2944 47.043C84.7123 47.043 85.8851 46.5529 86.8128 45.5726L88.6245 47.6207C87.3467 49.1435 85.535 49.905 83.1894 49.905C81.719 49.905 80.4149 49.5987 79.2771 48.986C78.1393 48.3558 77.2554 47.4981 76.6252 46.4128C76.0126 45.3101 75.7062 44.0673 75.7062 42.6844C75.7062 41.3191 76.0038 40.0937 76.599 39.0085C77.2116 37.9057 78.0518 37.048 79.1196 36.4353C80.1874 35.8052 81.3777 35.4901 82.6905 35.4901C83.9858 35.4901 85.1499 35.7876 86.1826 36.3828C87.2329 36.9779 88.0556 37.8182 88.6508 38.9034C89.2459 39.9887 89.5435 41.2578 89.5435 42.7107ZM82.7168 38.1945C81.7365 38.1945 80.9138 38.5096 80.2486 39.1398C79.601 39.7524 79.2159 40.5664 79.0933 41.5816H86.3402C86.2001 40.5664 85.8063 39.7524 85.1586 39.1398C84.511 38.5096 83.697 38.1945 82.7168 38.1945ZM105.115 49.7212H101.885V47.7519C101.395 48.4521 100.774 48.986 100.021 49.3536C99.2685 49.7212 98.4195 49.905 97.4742 49.905C96.2139 49.905 95.0761 49.6074 94.0609 49.0123C93.0456 48.4171 92.2492 47.5769 91.6715 46.4916C91.0939 45.3888 90.8051 44.1198 90.8051 42.6844C90.8051 41.2665 91.0939 40.015 91.6715 38.9297C92.2492 37.8269 93.0456 36.9779 94.0609 36.3828C95.0761 35.7876 96.2139 35.4901 97.4742 35.4901C98.3845 35.4901 99.1984 35.6651 99.9161 36.0152C100.651 36.3478 101.255 36.8554 101.728 37.5381V30.2387H105.115V49.7212ZM98.0256 46.9642C99.1109 46.9642 100.012 46.5791 100.73 45.8089C101.448 45.0212 101.807 43.9797 101.807 42.6844C101.807 41.4066 101.448 40.3826 100.73 39.6124C100.012 38.8247 99.1109 38.4308 98.0256 38.4308C96.9229 38.4308 96.0126 38.8159 95.2949 39.5861C94.5773 40.3563 94.2184 41.3891 94.2184 42.6844C94.2184 43.9797 94.5773 45.0212 95.2949 45.8089C96.0126 46.5791 96.9229 46.9642 98.0256 46.9642Z" fill="#151414"/>
<path d="M24.9114 22.2911C24.5438 22.5886 24.0886 22.8162 23.546 22.9737C23.0034 23.1138 22.4345 23.1838 21.8393 23.1838C20.3339 23.1838 19.1699 22.7724 18.3472 21.9497C17.5245 21.127 17.1131 19.9367 17.1131 18.3788V11.9722H14.9863V9.21524H17.1131V5.85439H20.5002V9.21524H23.9924V11.9722H20.5002V18.3263C20.5002 18.974 20.6578 19.4729 20.9729 19.8229C21.2879 20.173 21.7343 20.3481 22.3119 20.3481C22.9421 20.3481 23.4935 20.1555 23.9661 19.7704L24.9114 22.2911ZM34.6221 8.76888C36.285 8.76888 37.6154 9.28526 38.6131 10.318C39.6284 11.3508 40.136 12.8824 40.136 14.9129V23H36.7489V15.4643C36.7489 14.2565 36.4863 13.355 35.9612 12.7599C35.4536 12.1472 34.7096 11.8409 33.7294 11.8409C32.6616 11.8409 31.8039 12.1998 31.1562 12.9174C30.5261 13.6176 30.211 14.6329 30.211 15.9632V23H26.7976V3.51754H30.211V10.7119C30.7011 10.0817 31.3225 9.60034 32.0752 9.26776C32.8454 8.93517 33.6944 8.76888 34.6221 8.76888ZM46.669 11.0532C47.1066 10.3005 47.7193 9.73163 48.507 9.34653C49.3122 8.96143 50.2574 8.76888 51.3427 8.76888V12.051C51.1502 12.0335 50.8963 12.0247 50.5813 12.0247C49.4085 12.0247 48.4895 12.3835 47.8243 13.1012C47.1591 13.8014 46.8266 14.8429 46.8266 16.2258V23H43.4132V8.95268H46.669V11.0532ZM66.2125 15.9895C66.2125 16.0595 66.1862 16.3833 66.1337 16.961H55.7886C55.9461 17.9937 56.4012 18.8164 57.1539 19.4291C57.9066 20.0242 58.8431 20.3218 59.9634 20.3218C61.3813 20.3218 62.5541 19.8317 63.4818 18.8514L65.2935 20.8995C64.0157 22.4224 62.204 23.1838 59.8584 23.1838C58.388 23.1838 57.0839 22.8775 55.9461 22.2648C54.8083 21.6347 53.9244 20.7769 53.2942 19.6917C52.6816 18.5889 52.3752 17.3461 52.3752 15.9632C52.3752 14.5979 52.6728 13.3726 53.268 12.2873C53.8806 11.1845 54.7208 10.3268 55.7886 9.71412C56.8564 9.08396 58.0467 8.76888 59.3595 8.76888C60.6548 8.76888 61.8189 9.06646 62.8516 9.66161C63.9019 10.2568 64.7246 11.097 65.3198 12.1822C65.9149 13.2675 66.2125 14.5366 66.2125 15.9895ZM59.3858 11.4733C58.4055 11.4733 57.5828 11.7884 56.9176 12.4186C56.27 13.0312 55.8849 13.8452 55.7623 14.8604H63.0092C62.8691 13.8452 62.4753 13.0312 61.8276 12.4186C61.18 11.7884 60.366 11.4733 59.3858 11.4733ZM81.2588 15.9895C81.2588 16.0595 81.2325 16.3833 81.18 16.961H70.8349C70.9924 17.9937 71.4476 18.8164 72.2002 19.4291C72.9529 20.0242 73.8894 20.3218 75.0097 20.3218C76.4276 20.3218 77.6004 19.8317 78.5281 18.8514L80.3398 20.8995C79.062 22.4224 77.2503 23.1838 74.9047 23.1838C73.4343 23.1838 72.1302 22.8775 70.9924 22.2648C69.8546 21.6347 68.9707 20.7769 68.3405 19.6917C67.7279 18.5889 67.4215 17.3461 67.4215 15.9632C67.4215 14.5979 67.7191 13.3726 68.3143 12.2873C68.9269 11.1845 69.7671 10.3268 70.8349 9.71412C71.9027 9.08396 73.093 8.76888 74.4058 8.76888C75.7011 8.76888 76.8652 9.06646 77.8979 9.66161C78.9482 10.2568 79.7709 11.097 80.3661 12.1822C80.9612 13.2675 81.2588 14.5366 81.2588 15.9895ZM74.4321 11.4733C73.4518 11.4733 72.6291 11.7884 71.9639 12.4186C71.3163 13.0312 70.9312 13.8452 70.8086 14.8604H78.0555C77.9154 13.8452 77.5216 13.0312 76.8739 12.4186C76.2263 11.7884 75.4123 11.4733 74.4321 11.4733Z" fill="#151414"/>
</svg>
