<svg width="72" height="347" viewBox="0 0 72 347" fill="none" xmlns="http://www.w3.org/2000/svg">
<path d="M35.596 71.192C55.2551 71.192 71.192 55.2551 71.192 35.596C71.192 15.9369 55.2551 0 35.596 0C15.9369 0 0 15.9369 0 35.596C0 55.2551 15.9369 71.192 35.596 71.192Z" fill="#715DE3"/>
<path d="M35.596 208.809C55.2551 208.809 71.192 192.873 71.192 173.213C71.192 153.554 55.2551 137.617 35.596 137.617C15.9369 137.617 0 153.554 0 173.213C0 192.873 15.9369 208.809 35.596 208.809Z" fill="#715DE3"/>
<path d="M35.596 346.504C55.2551 346.504 71.192 330.568 71.192 310.908C71.192 291.249 55.2551 275.312 35.596 275.312C15.9369 275.312 0 291.249 0 310.908C0 330.568 15.9369 346.504 35.596 346.504Z" fill="#715DE3"/>
</svg>
