<svg width="76" height="76" viewBox="0 0 76 76" fill="none" xmlns="http://www.w3.org/2000/svg">
<path d="M61.8308 53.8737H58.008V50.7955C58.008 50.5615 57.915 50.3371 57.7496 50.1717C57.5841 50.0062 57.3598 49.9133 57.1258 49.9133C56.8918 49.9133 56.6674 50.0062 56.502 50.1717C56.3365 50.3371 56.2436 50.5615 56.2436 50.7955V53.8737H49.186V30.6426H56.2436V46.605C56.2436 46.839 56.3365 47.0634 56.502 47.2288C56.6674 47.3943 56.8918 47.4872 57.1258 47.4872C57.3598 47.4872 57.5841 47.3943 57.7496 47.2288C57.915 47.0634 58.008 46.839 58.008 46.605V29.7604C58.008 29.5264 57.915 29.3021 57.7496 29.1366C57.5841 28.9712 57.3598 28.8782 57.1258 28.8782H48.3038C48.0699 28.8782 47.8455 28.9712 47.68 29.1366C47.5146 29.3021 47.4216 29.5264 47.4216 29.7604V53.8737H43.0842V36.2298C43.0842 35.9959 42.9912 35.7715 42.8258 35.606C42.6604 35.4406 42.436 35.3476 42.202 35.3476H33.38C33.1461 35.3476 32.9217 35.4406 32.7562 35.606C32.5908 35.7715 32.4978 35.9959 32.4978 36.2298V53.8737H28.1604V41.2289C28.1604 40.995 28.0674 40.7706 27.902 40.6051C27.7366 40.4397 27.5122 40.3468 27.2782 40.3468H18.4563C18.2223 40.3468 17.9979 40.4397 17.8324 40.6051C17.667 40.7706 17.5741 40.995 17.5741 41.2289V53.8737H14.6334V49.5457C14.6334 49.3117 14.5405 49.0873 14.375 48.9219C14.2096 48.7564 13.9852 48.6635 13.7512 48.6635C13.5172 48.6635 13.2929 48.7564 13.1274 48.9219C12.962 49.0873 12.869 49.3117 12.869 49.5457V60.0491C12.869 60.2831 12.962 60.5075 13.1274 60.6729C13.2929 60.8383 13.5172 60.9313 13.7512 60.9313H19.559C19.793 60.9313 20.0174 60.8383 20.1828 60.6729C20.3482 60.5075 20.4412 60.2831 20.4412 60.0491C20.4412 59.8151 20.3482 59.5907 20.1828 59.4253C20.0174 59.2598 19.793 59.1669 19.559 59.1669H14.6334V55.6381H60.9486V59.1669H23.0878C22.8538 59.1669 22.6294 59.2598 22.464 59.4253C22.2985 59.5907 22.2056 59.8151 22.2056 60.0491C22.2056 60.2831 22.2985 60.5075 22.464 60.6729C22.6294 60.8383 22.8538 60.9313 23.0878 60.9313H61.8308C62.0648 60.9313 62.2892 60.8383 62.4546 60.6729C62.6201 60.5075 62.713 60.2831 62.713 60.0491V54.7559C62.713 54.6401 62.6902 54.5254 62.6459 54.4183C62.6015 54.3113 62.5365 54.214 62.4546 54.1321C62.3727 54.0502 62.2755 53.9852 62.1684 53.9409C62.0614 53.8966 61.9467 53.8737 61.8308 53.8737V53.8737ZM19.3384 53.8737V42.1111H26.396V53.8737H19.3384ZM34.2622 53.8737V37.112H41.3198V53.8737H34.2622ZM17.5205 37.4108C17.7863 37.6238 18.1168 37.7398 18.4574 37.7396C18.5152 37.7396 18.5729 37.7363 18.6303 37.7296C21.3439 37.4045 24.0237 36.8418 26.6389 36.0481C29.2504 35.2762 31.7972 34.3002 34.2558 33.1292C35.1968 32.7128 36.099 32.2206 36.9723 31.7448C37.2823 31.576 37.5928 31.4066 37.9051 31.2407C37.9245 31.2302 37.9439 31.2196 37.9639 31.2072C38.3015 30.9937 38.6432 30.7855 38.9855 30.5779C39.8012 30.0815 40.6446 29.5687 41.4021 28.9988C43.4365 27.5894 45.3499 26.0129 47.1223 24.2855L49.3231 26.4863C49.439 26.6023 49.585 26.6836 49.7447 26.7212C49.9043 26.7588 50.0713 26.7511 50.2268 26.699C50.3823 26.647 50.5202 26.5526 50.6251 26.4265C50.73 26.3004 50.7976 26.1476 50.8204 25.9852L52.1508 16.5222C52.1698 16.3869 52.1571 16.2491 52.1138 16.1196C52.0704 15.99 51.9976 15.8723 51.901 15.7757C51.8044 15.6791 51.6867 15.6063 51.5571 15.5629C51.4276 15.5196 51.2898 15.5069 51.1545 15.5259L46.4224 16.1911L41.6903 16.8568C41.5279 16.8797 41.3751 16.9473 41.249 17.0522C41.1229 17.157 41.0285 17.295 40.9765 17.4505C40.9244 17.606 40.9168 17.773 40.9544 17.9326C40.9919 18.0923 41.0733 18.2383 41.1892 18.3542L43.4241 20.5891C41.9337 22.2718 40.3044 23.826 38.5532 25.2353C37.906 25.7816 37.2317 26.2951 36.533 26.7739C36.2137 27.0015 35.8937 27.2291 35.5779 27.4632C35.285 27.6471 34.9931 27.8329 34.7022 28.0207C33.9511 28.503 33.173 29.0023 32.3655 29.4322C30.1647 30.6827 27.8688 31.758 25.4991 32.6481C23.1253 33.5596 20.6764 34.2622 18.1804 34.7478C17.8069 34.8198 17.4742 35.0298 17.2485 35.3361C17.0228 35.6423 16.9206 36.0223 16.9624 36.4004C16.984 36.5974 17.0444 36.7881 17.1402 36.9615C17.236 37.135 17.3653 37.2877 17.5205 37.4108V37.4108ZM26.1184 34.2996C28.5667 33.3797 30.9391 32.269 33.2136 30.9778C34.0658 30.525 34.8733 30.0068 35.6549 29.5075C35.949 29.3181 36.2431 29.1282 36.5418 28.9423C36.5621 28.9303 36.5818 28.9171 36.6006 28.9029C36.9165 28.6677 37.2364 28.4412 37.5558 28.2142C38.2762 27.7014 39.0208 27.1721 39.673 26.5986C41.679 24.9725 43.5387 23.1738 45.2309 21.2231L45.2944 21.1531C45.4463 20.9853 45.5279 20.7656 45.5223 20.5393C45.5167 20.313 45.4244 20.0976 45.2644 19.9375L43.6876 18.3572L50.2405 17.4362L49.3184 23.9885L47.7598 22.4294C47.5965 22.2661 47.3757 22.1733 47.1448 22.171C46.9139 22.1687 46.6913 22.257 46.5247 22.417C44.6296 24.307 42.5732 26.0279 40.3788 27.5602C39.6519 28.106 38.8814 28.5747 38.0657 29.07C37.724 29.2781 37.3829 29.4852 37.0459 29.6981C36.7383 29.8616 36.4318 30.0292 36.126 30.1956C35.2438 30.6755 34.4134 31.129 33.5177 31.5266C31.1359 32.6617 28.6685 33.6078 26.1384 34.3561C25.8698 34.4345 25.6038 34.5111 25.3403 34.586C25.5991 34.4927 25.8583 34.3972 26.1178 34.2996H26.1184ZM12.869 43.5174V33.9602C12.869 33.7263 12.962 33.5019 13.1274 33.3364C13.2929 33.171 13.5172 33.0781 13.7512 33.0781C13.9852 33.0781 14.2096 33.171 14.375 33.3364C14.5405 33.5019 14.6334 33.7263 14.6334 33.9602V43.5174C14.6334 43.7513 14.5405 43.9757 14.375 44.1412C14.2096 44.3066 13.9852 44.3996 13.7512 44.3996C13.5172 44.3996 13.2929 44.3066 13.1274 44.1412C12.962 43.9757 12.869 43.7513 12.869 43.5174ZM12.869 26.628V16.3993C12.869 16.1653 12.962 15.9409 13.1274 15.7755C13.2929 15.61 13.5172 15.5171 13.7512 15.5171C13.9852 15.5171 14.2096 15.61 14.375 15.7755C14.5405 15.9409 14.6334 16.1653 14.6334 16.3993V26.628C14.6334 26.7439 14.6106 26.8586 14.5663 26.9656C14.5219 27.0727 14.4569 27.1699 14.375 27.2518C14.2931 27.3338 14.1958 27.3987 14.0888 27.4431C13.9818 27.4874 13.8671 27.5102 13.7512 27.5102C13.6354 27.5102 13.5206 27.4874 13.4136 27.4431C13.3066 27.3987 13.2093 27.3338 13.1274 27.2518C13.0455 27.1699 12.9805 27.0727 12.9362 26.9656C12.8918 26.8586 12.869 26.7439 12.869 26.628V26.628Z" fill="#7461E4"/>
</svg>
