<svg width="76" height="76" viewBox="0 0 76 76" fill="none" xmlns="http://www.w3.org/2000/svg">
<path d="M56.3153 28.3554C56.3153 18.5807 47.9639 10.3228 38.0762 10.3228C28.1886 10.3228 19.8372 18.5813 19.8372 28.3554C19.8372 37.3244 23.0636 44.7301 28.5903 48.7711C28.1919 48.9207 27.8292 49.1521 27.5258 49.4504C27.1581 49.8188 26.8933 50.277 26.7578 50.7795C26.6223 51.282 26.6207 51.8112 26.7533 52.3144C26.8859 52.8177 27.148 53.2775 27.5136 53.6479C27.8791 54.0184 28.3353 54.2867 28.8367 54.426C28.6319 54.8166 28.5173 55.2481 28.5014 55.6888C28.4855 56.1296 28.5687 56.5683 28.7449 56.9726C28.9211 57.3769 29.1858 57.7364 29.5195 58.0248C29.8532 58.3132 30.2473 58.523 30.6729 58.6388V58.7241C30.6729 59.6962 30.8643 60.6588 31.2364 61.557C31.6084 62.4551 32.1537 63.2712 32.8411 63.9586C33.5285 64.646 34.3446 65.1913 35.2427 65.5634C36.1409 65.9354 37.1035 66.1269 38.0757 66.1269C39.0478 66.1269 40.0104 65.9354 40.9086 65.5634C41.8067 65.1913 42.6228 64.646 43.3102 63.9586C43.9976 63.2712 44.5429 62.4551 44.9149 61.557C45.287 60.6588 45.4784 59.6962 45.4784 58.7241V58.6388C46.1062 58.4689 46.6601 58.0961 47.0538 57.5784C47.4474 57.0607 47.6587 56.4273 47.6545 55.7769C47.6516 55.3056 47.5359 54.8417 47.3169 54.4242C47.9462 54.2553 48.5018 53.8824 48.8966 53.3641C49.2914 52.8457 49.5032 52.2111 49.4989 51.5595C49.4973 50.953 49.3112 50.3613 48.9652 49.8632C48.6193 49.365 48.1299 48.9839 47.5622 48.7706C53.0882 44.7319 56.3153 37.3256 56.3153 28.3554ZM38.0762 64.3619C36.589 64.3596 35.1627 63.7706 34.1071 62.7228C33.0516 61.675 32.4522 60.253 32.439 58.7658H43.7135C43.7003 60.253 43.1009 61.675 42.0453 62.7228C40.9898 63.7706 39.5635 64.3596 38.0762 64.3619ZM45.5343 56.6397C45.3144 56.858 45.0205 56.9856 44.7109 56.9973C44.672 56.9907 44.6327 56.9868 44.5933 56.9856H31.5556C31.5174 56.987 31.4793 56.9909 31.4416 56.9973C31.1193 56.9879 30.8138 56.8516 30.5915 56.6181C30.3691 56.3846 30.248 56.0728 30.2543 55.7504C30.2607 55.4281 30.394 55.1213 30.6254 54.8967C30.8567 54.6722 31.1674 54.548 31.4898 54.5513H44.6633C44.9051 54.5516 45.1414 54.6234 45.3425 54.7576C45.5436 54.8918 45.7006 55.0825 45.7937 55.3056C45.8869 55.5287 45.912 55.7744 45.8659 56.0118C45.8199 56.2491 45.7047 56.4676 45.5349 56.6397H45.5343ZM47.3787 52.4246C47.1476 52.656 46.8341 52.7863 46.5071 52.7869H29.646C29.4828 52.7905 29.3206 52.7614 29.1688 52.7014C29.017 52.6415 28.8787 52.5518 28.762 52.4376C28.6453 52.3235 28.5526 52.1872 28.4894 52.0368C28.4261 51.8863 28.3935 51.7247 28.3935 51.5615C28.3935 51.3983 28.4261 51.2367 28.4894 51.0863C28.5526 50.9358 28.6453 50.7996 28.762 50.6854C28.8787 50.5713 29.017 50.4816 29.1688 50.4216C29.3206 50.3616 29.4828 50.3326 29.646 50.3362H46.5065C46.7483 50.3365 46.9846 50.4083 47.1857 50.5425C47.3868 50.6767 47.5438 50.8673 47.6369 51.0905C47.7301 51.3136 47.7552 51.5593 47.7091 51.7967C47.6631 52.034 47.5479 52.2525 47.3781 52.4246H47.3787ZM44.5557 48.5718H31.5962C25.3338 45.3182 21.6016 37.7808 21.6016 28.3554C21.6016 19.537 29.1461 12.0871 38.0762 12.0871C47.0064 12.0871 54.5509 19.5376 54.5509 28.3554C54.5509 37.7808 50.8187 45.3182 44.5563 48.5712L44.5557 48.5718ZM25.1303 28.3554C25.1303 28.5894 25.0374 28.8138 24.8719 28.9792C24.7065 29.1446 24.4821 29.2376 24.2481 29.2376C24.0142 29.2376 23.7898 29.1446 23.6243 28.9792C23.4589 28.8138 23.3659 28.5894 23.3659 28.3554C23.3942 25.7305 24.1311 23.1619 25.4989 20.9213C26.8667 18.6807 28.8145 16.8513 31.1363 15.6265C31.3421 15.515 31.5837 15.4898 31.808 15.5564C32.0323 15.623 32.221 15.776 32.3326 15.9817C32.4441 16.1875 32.4693 16.4291 32.4027 16.6534C32.3361 16.8778 32.1831 17.0665 31.9773 17.178C29.9349 18.2514 28.2205 19.8567 27.0153 21.8242C25.81 23.7917 25.1588 26.0483 25.1303 28.3554ZM46.7012 28.7083H45.3191C45.2879 28.6265 45.2555 28.5454 45.2214 28.4648L46.1971 27.4891C46.3316 27.3548 46.4382 27.1953 46.5109 27.0198C46.5837 26.8442 46.6211 26.6561 46.6211 26.466C46.6211 26.276 46.5837 26.0879 46.5109 25.9123C46.4382 25.7368 46.3316 25.5773 46.1971 25.443L44.1975 23.4433C43.9259 23.1724 43.558 23.0203 43.1744 23.0203C42.7909 23.0203 42.4229 23.1724 42.1514 23.4433L41.1751 24.4196C41.0947 24.3859 41.0136 24.3534 40.9316 24.322V22.9399C40.9311 22.5563 40.7786 22.1886 40.5073 21.9174C40.2361 21.6461 39.8684 21.4936 39.4848 21.4931H36.6647C36.2812 21.4936 35.9134 21.6461 35.6422 21.9174C35.371 22.1886 35.2184 22.5563 35.2179 22.9399V24.4626L35.0768 24.5214L33.9999 23.4451C33.7283 23.1743 33.3604 23.0223 32.9769 23.0223C32.5933 23.0223 32.2254 23.1743 31.9538 23.4451L29.9542 25.4447C29.8198 25.5791 29.7132 25.7386 29.6405 25.9141C29.5678 26.0897 29.5304 26.2778 29.5304 26.4678C29.5304 26.6578 29.5678 26.8459 29.6405 27.0215C29.7132 27.197 29.8198 27.3565 29.9542 27.4908L31.1634 28.7006L31.1598 28.7106H29.4507C29.0672 28.7111 28.6994 28.8637 28.4282 29.1349C28.157 29.4061 28.0044 29.7739 28.0039 30.1574V32.9805C28.0044 33.364 28.157 33.7317 28.4282 34.003C28.6994 34.2742 29.0672 34.4268 29.4507 34.4272H31.174L29.9548 35.6464C29.6837 35.9179 29.5315 36.2859 29.5315 36.6695C29.5315 37.0531 29.6837 37.4211 29.9548 37.6925L31.9544 39.6922C32.226 39.9629 32.5939 40.115 32.9775 40.115C33.361 40.115 33.7289 39.9629 34.0005 39.6922L35.2197 38.473V40.1962C35.2202 40.5798 35.3727 40.9475 35.644 41.2187C35.9152 41.49 36.2829 41.6425 36.6665 41.643H39.4895C39.8731 41.6425 40.2408 41.49 40.512 41.2187C40.7833 40.9475 40.9358 40.5798 40.9363 40.1962V38.4842L40.9463 38.4806L42.1561 39.691C42.4277 39.9618 42.7956 40.1138 43.1791 40.1138C43.5627 40.1138 43.9306 39.9618 44.2022 39.691L46.2018 37.6914C46.4729 37.4199 46.6251 37.0519 46.6251 36.6683C46.6251 36.2847 46.4729 35.9167 46.2018 35.6453L45.1256 34.569C45.1475 34.5215 45.1689 34.4739 45.1897 34.4261H46.7065C47.09 34.4256 47.4578 34.273 47.729 34.0018C48.0002 33.7306 48.1528 33.3628 48.1533 32.9793V30.1563C48.1529 29.966 48.115 29.7777 48.0419 29.6021C47.9687 29.4265 47.8617 29.2671 47.7269 29.1328C47.5921 28.9986 47.4322 28.8922 47.2563 28.8198C47.0804 28.7473 46.892 28.7102 46.7018 28.7106L46.7012 28.7083ZM46.3836 32.6599H44.9721C44.6816 32.6609 44.3981 32.749 44.1583 32.9127C43.9184 33.0765 43.7331 33.3084 43.6264 33.5786C43.5723 33.7135 43.5135 33.8458 43.45 33.9756C43.3127 34.2481 43.2645 34.5568 43.3121 34.8581C43.3597 35.1595 43.5007 35.4383 43.7152 35.6553L44.7268 36.6668L43.1783 38.2154L42.0461 37.0832C41.8418 36.8803 41.5818 36.7426 41.2991 36.6875C41.0164 36.6325 40.7238 36.6625 40.4582 36.7739C40.3547 36.8166 40.2494 36.8558 40.1423 36.8915C39.8574 36.9911 39.6108 37.1773 39.4368 37.4239C39.2628 37.6705 39.1702 37.9653 39.1719 38.2671V39.8727H36.9829V38.1336C36.9822 37.844 36.8945 37.5611 36.7311 37.3219C36.5677 37.0827 36.3362 36.8981 36.0666 36.7921C35.9907 36.7615 35.916 36.7298 35.8408 36.6951C35.5727 36.57 35.2727 36.5305 34.9814 36.5817C34.6901 36.6329 34.4215 36.7725 34.2122 36.9815L32.9772 38.2166L31.4286 36.6674L32.6637 35.4324C32.8731 35.2232 33.013 34.9546 33.0644 34.6631C33.1157 34.3716 33.076 34.0714 32.9507 33.8032C32.9172 33.7297 32.8854 33.655 32.8542 33.578C32.7482 33.3083 32.5637 33.0767 32.3245 32.9131C32.0853 32.7495 31.8025 32.6615 31.5127 32.6605H29.7689V30.475H31.3716C31.6734 30.4768 31.9683 30.3843 32.2149 30.2103C32.4615 30.0363 32.6477 29.7896 32.7472 29.5046C32.7841 29.3976 32.8233 29.2919 32.8648 29.1876C32.9762 28.9221 33.0063 28.6294 32.9513 28.3468C32.8964 28.0641 32.7588 27.8041 32.5561 27.5997L31.4233 26.4669L32.9719 24.9184L33.9834 25.93C34.2004 26.1444 34.4793 26.2854 34.7806 26.333C35.0819 26.3805 35.3906 26.3324 35.6631 26.1952C35.7929 26.1309 35.9255 26.0721 36.0607 26.0188C36.3307 25.9121 36.5625 25.7269 36.7262 25.4871C36.8898 25.2473 36.9778 24.964 36.9788 24.6737V23.2622H39.166V24.5508C39.1682 24.853 39.2643 25.1471 39.4409 25.3923C39.6174 25.6376 39.8658 25.822 40.1518 25.92C40.3158 25.9788 40.4776 26.0417 40.6346 26.1134C40.9031 26.239 41.2037 26.2788 41.4956 26.2274C41.7875 26.1761 42.0566 26.0361 42.2661 25.8264L43.1724 24.9201L44.7209 26.4687L43.8146 27.375C43.6051 27.5846 43.4652 27.8536 43.4139 28.1455C43.3625 28.4373 43.4022 28.7379 43.5276 29.0065C43.5994 29.1641 43.6629 29.3252 43.7211 29.4899C43.8191 29.7757 44.0035 30.0241 44.2488 30.2006C44.4941 30.377 44.7881 30.4729 45.0903 30.475H46.38L46.3836 32.6599ZM38.0762 27.5685C37.2853 27.5685 36.512 27.803 35.8544 28.2425C35.1967 28.6819 34.6841 29.3065 34.3814 30.0373C34.0787 30.7681 33.9995 31.5722 34.1538 32.348C34.3081 33.1238 34.689 33.8364 35.2483 34.3957C35.8076 34.955 36.5202 35.3359 37.296 35.4902C38.0718 35.6445 38.8759 35.5653 39.6067 35.2626C40.3375 34.9599 40.9621 34.4473 41.4015 33.7896C41.841 33.132 42.0755 32.3587 42.0755 31.5678C42.0741 30.5075 41.6523 29.4911 40.9026 28.7414C40.1529 27.9917 39.1365 27.5699 38.0762 27.5685ZM38.0762 33.8027C37.6342 33.8027 37.2021 33.6716 36.8346 33.426C36.4671 33.1804 36.1806 32.8314 36.0115 32.423C35.8423 32.0146 35.7981 31.5653 35.8843 31.1318C35.9705 30.6982 36.1834 30.3 36.4959 29.9875C36.8085 29.6749 37.2067 29.462 37.6402 29.3758C38.0738 29.2896 38.5231 29.3338 38.9315 29.503C39.3399 29.6721 39.6889 29.9586 39.9345 30.3261C40.1801 30.6936 40.3111 31.1257 40.3111 31.5678C40.3107 32.1605 40.0751 32.7289 39.6561 33.1482C39.2372 33.5675 38.669 33.8035 38.0762 33.8044V33.8027Z" fill="#7461E4"/>
</svg>
